<?xml version="1.0" standalone="no"?>
<!DOCTYPE svg PUBLIC "-//W3C//DTD SVG 20010904//EN"
 "http://www.w3.org/TR/2001/REC-SVG-20010904/DTD/svg10.dtd">
<svg version="1.0" xmlns="http://www.w3.org/2000/svg"
 width="260.000000pt" height="260.000000pt" viewBox="0 0 260.000000 260.000000"
 preserveAspectRatio="xMidYMid meet">
<metadata>
Created by potrace 1.11, written by Peter Selinger 2001-2013
</metadata>
<g transform="translate(0.000000,260.000000) scale(0.100000,-0.100000)"
fill="#000000" stroke="none">
<path d="M319 2534 c-1 -2 -2 -58 -3 -124 l-1 -120 25 -1 c14 0 132 -1 263 -2
l237 -2 1 25 c1 32 1 201 0 216 -1 8 -75 12 -261 12 -143 0 -261 -2 -261 -4z"/>
<path d="M321 2195 c-4 -5 -7 -62 -7 -125 l1 -115 264 0 264 0 -1 115 c0 63
-1 120 -1 125 -1 14 -509 14 -520 0z"/>
<path d="M1010 1753 c0 -168 4 -263 10 -264 6 0 53 0 105 0 52 0 101 0 108 0
9 1 12 60 12 261 0 225 -2 260 -15 261 -8 0 -61 1 -117 2 l-103 2 0 -262z"/>
<path d="M1329 1990 c0 -29 0 -380 0 -455 l1 -50 108 2 c59 1 114 2 123 2 15
1 17 27 16 261 0 182 -3 260 -11 260 -6 1 -62 2 -124 3 l-112 2 -1 -25z"/>
<path d="M1686 1998 c-3 -7 -4 -20 -4 -28 1 -8 -2 -35 -5 -60 -3 -25 -9 -72
-12 -105 -4 -33 -8 -69 -10 -80 -3 -24 -19 -192 -19 -218 -1 -25 80 -62 91
-42 5 7 35 43 68 80 33 38 68 77 78 89 10 12 48 53 83 93 36 39 74 82 84 96
l20 25 -49 36 c-62 46 -165 94 -238 112 -73 17 -83 17 -87 2z"/>
<path d="M327 1870 c-9 -4 -13 -38 -12 -125 l0 -120 263 -2 c237 -1 262 1 263
15 4 86 3 216 -3 225 -6 10 -485 17 -511 7z"/>
<path d="M1944 1583 l-210 -146 15 -43 15 -43 258 0 c142 0 258 3 259 7 0 4 2
14 4 23 4 20 -20 156 -35 194 -24 63 -74 155 -85 155 -6 0 -105 -66 -221 -147z"/>
<path d="M319 1538 c-1 -2 -2 -58 -3 -125 l-2 -123 266 0 265 0 -2 107 c-1 60
-2 116 -2 126 -1 16 -20 17 -261 17 -143 0 -261 -1 -261 -2z"/>
<path d="M1763 1273 c-9 -3 -9 -225 1 -241 4 -7 93 -10 264 -9 l257 2 0 125 0
125 -257 0 c-141 0 -260 -1 -265 -2z"/>
<path d="M319 1207 c-7 -10 -2 -240 5 -244 5 -4 122 -7 259 -7 212 -1 250 1
256 14 5 12 6 136 2 222 -1 16 -23 17 -261 17 -143 0 -261 -1 -261 -2z"/>
<path d="M1768 939 c-14 -9 -16 -219 -3 -220 6 0 17 -2 25 -4 8 -1 47 -6 85
-9 39 -4 84 -9 100 -11 32 -5 87 -11 170 -20 28 -3 69 -8 93 -10 49 -6 44 -23
46 158 1 98 -1 117 -14 118 -74 4 -494 3 -502 -2z"/>
<path d="M316 870 c-11 -21 9 -287 22 -306 4 -6 104 17 257 61 l250 71 0 87
c0 48 -2 88 -5 88 -17 4 -522 3 -524 -1z"/>
<path d="M1728 656 l-28 -34 68 -94 c147 -203 242 -328 249 -328 3 0 39 34 79
76 53 54 85 98 115 160 23 46 40 87 36 90 -5 5 -476 164 -487 164 -3 0 -17
-15 -32 -34z"/>
<path d="M780 634 c-36 -19 -138 -73 -228 -120 l-163 -86 22 -36 c57 -94 215
-241 259 -242 10 0 57 80 132 228 l117 229 -32 31 c-18 18 -35 32 -37 32 -3
-1 -34 -17 -70 -36z"/>
<path d="M1658 605 c-2 -3 -30 -6 -61 -6 l-57 -2 0 -263 0 -264 68 0 c82 0
167 15 239 41 44 17 51 23 43 37 -9 16 -26 53 -155 335 -54 119 -64 135 -77
122z"/>
<path d="M876 349 c-37 -138 -66 -253 -63 -255 10 -11 60 -17 184 -21 l132 -5
-2 263 -2 264 -91 2 -91 2 -67 -250z"/>
<path d="M1210 577 c-1 -34 -1 -480 0 -494 0 -10 32 -13 124 -13 l123 0 -1
263 -1 262 -122 2 c-120 1 -123 1 -123 -20z"/>
</g>
</svg>
